<svg width="35" height="35" viewBox="0 0 35 35" fill="none" xmlns="http://www.w3.org/2000/svg">
<path d="M16.1494 4.2944C16.6954 3.1647 18.3045 3.16469 18.8505 4.2944L21.6201 10.025C22.0193 10.8511 22.7746 11.449 23.6701 11.6481L29.8633 13.025C30.8921 13.2537 31.3705 14.4443 30.7858 15.3213L26.6804 21.4794C26.2443 22.1335 26.0824 22.9327 26.2295 23.7049L27.4974 30.3614C27.717 31.5145 26.5869 32.4617 25.4899 32.0438L18.5679 29.4068C17.88 29.1448 17.1198 29.1448 16.4319 29.4069L9.37894 32.0937C8.3109 32.5006 7.19839 31.6113 7.36002 30.4799L8.32872 23.6989C8.4386 22.9298 8.2458 22.148 7.79091 21.5182L3.36374 15.3882C2.72505 14.5039 3.21393 13.2552 4.28327 13.0396L11.2877 11.6273C12.2075 11.4418 12.9875 10.8367 13.3958 9.99188L16.1494 4.2944Z" fill="#E5E5E5"/>
</svg>
