<svg width="100" height="100" viewBox="0 0 100 100" fill="none" xmlns="http://www.w3.org/2000/svg">
<mask id="mask0_4_160" style="mask-type:alpha" maskUnits="userSpaceOnUse" x="2" y="9" width="95" height="81">
<path fill-rule="evenodd" clip-rule="evenodd" d="M9.18449 16.1845C-0.394834 25.7638 -0.394829 41.295 9.18449 50.8743L49.768 90L79.2389 61.7628L89.7602 51.3258C99.386 41.7772 99.4173 26.2235 89.83 16.6362C80.2699 7.07618 64.77 7.07618 55.2099 16.6362L49.768 22.0782L43.8743 16.1845C34.295 6.60517 18.7639 6.60517 9.18449 16.1845Z" fill="white"/>
</mask>
<g mask="url(#mask0_4_160)">
<path d="M49.5603 91.0251L43.1963 97.3891L49.5603 103.753L55.9242 97.3891L49.5603 91.0251ZM79.1432 61.4422L72.8049 55.0527L72.7921 55.0654L72.7793 55.0782L79.1432 61.4422ZM49.6723 21.7576L43.3084 28.1215L49.6723 34.4855L56.0363 28.1215L49.6723 21.7576ZM15.4528 44.1897C9.38816 38.1251 9.38816 28.2925 15.4528 22.2279L2.72485 9.49997C-10.3692 22.594 -10.3692 43.8236 2.72485 56.9177L15.4528 44.1897ZM55.9242 84.6612L15.4528 44.1897L2.72485 56.9177L43.1963 97.3891L55.9242 84.6612ZM72.7793 55.0782L43.1963 84.6612L55.9242 97.3891L85.5072 67.8061L72.7793 55.0782ZM85.4816 67.8317L96.0028 57.3947L83.3262 44.6157L72.8049 55.0527L85.4816 67.8317ZM96.0028 57.3947C109.167 44.3356 109.21 23.0637 96.0983 9.95174L83.3703 22.6796C89.4329 28.7421 89.4131 38.5776 83.3262 44.6157L96.0028 57.3947ZM96.0983 9.95174C83.0235 -3.12306 61.8251 -3.12306 48.7503 9.95174L61.4782 22.6796C67.5235 16.6343 77.325 16.6343 83.3703 22.6796L96.0983 9.95174ZM48.7503 9.95174L43.3084 15.3936L56.0363 28.1215L61.4782 22.6796L48.7503 9.95174ZM37.4147 22.2279L43.3084 28.1215L56.0363 15.3936L50.1426 9.49998L37.4147 22.2279ZM15.4528 22.2279C21.5174 16.1632 31.3501 16.1633 37.4147 22.2279L50.1426 9.49998C37.0486 -3.59407 15.8189 -3.59407 2.72485 9.49997L15.4528 22.2279Z" fill="#87B289"/>
</g>
</svg>
