<svg width="100" height="100" viewBox="0 0 100 100" fill="none" xmlns="http://www.w3.org/2000/svg">
<rect x="2" y="13" width="96" height="74" rx="22" fill="#87B389"/>
<path fill-rule="evenodd" clip-rule="evenodd" d="M55.0002 43V45C55.0002 46.6569 56.3434 48 58.0002 48H59.0002C60.6571 48 62.0002 46.6569 62.0002 45V43H72.9349C74.9544 43 76.397 44.9549 75.8016 46.8846L69.013 68.8846C68.6249 70.1422 67.4625 71 66.1464 71H33.8541C32.538 71 31.3755 70.1422 30.9875 68.8846L24.1989 46.8846C23.6035 44.9549 25.0461 43 27.0655 43H37.0002V45C37.0002 46.6569 38.3434 48 40.0002 48H41.0002C42.6571 48 44.0002 46.6569 44.0002 45V43H55.0002Z" fill="white"/>
<path fill-rule="evenodd" clip-rule="evenodd" d="M49.5 22C43.1487 22 38 27.1487 38 33.5V43.5C38 44.8807 39.1193 46 40.5 46C41.8807 46 43 44.8807 43 43.5V32.5C43 28.9101 45.9101 26 49.5 26C53.0899 26 56 28.9101 56 32.5V43.5C56 44.8807 57.1193 46 58.5 46C59.8807 46 61 44.8807 61 43.5V33.5C61 27.1487 55.8513 22 49.5 22Z" fill="white"/>
</svg>
