<svg width="100" height="100" viewBox="0 0 100 100" fill="none" xmlns="http://www.w3.org/2000/svg">
<rect x="3" y="14" width="94" height="72" rx="21" fill="white" stroke="#87B289" stroke-width="2"/>
<path fill-rule="evenodd" clip-rule="evenodd" d="M55.0002 43V45C55.0002 46.6569 56.3434 48 58.0002 48H59.0002C60.6571 48 62.0002 46.6569 62.0002 45V43H72.9349C74.9544 43 76.397 44.9549 75.8016 46.8846L69.013 68.8846C68.6249 70.1422 67.4625 71 66.1464 71H33.8541C32.538 71 31.3755 70.1422 30.9875 68.8846L24.1989 46.8846C23.6035 44.9549 25.0461 43 27.0655 43H37.0002V45C37.0002 46.6569 38.3434 48 40.0002 48H41.0002C42.6571 48 44.0002 46.6569 44.0002 45V43H55.0002Z" fill="#87B289"/>
<path fill-rule="evenodd" clip-rule="evenodd" d="M49.5 22C43.1487 22 38 27.1487 38 33.5V43.5C38 44.8807 39.1193 46 40.5 46C41.8807 46 43 44.8807 43 43.5V32.5C43 28.9101 45.9101 26 49.5 26C53.0899 26 56 28.9101 56 32.5V43.5C56 44.8807 57.1193 46 58.5 46C59.8807 46 61 44.8807 61 43.5V33.5C61 27.1487 55.8513 22 49.5 22Z" fill="#87B289"/>
<path d="M40.5006 60.4943C39.8331 59.8627 39.8331 58.8388 40.5006 58.2073C41.168 57.5757 42.2501 57.5757 42.9176 58.2073L48.9601 63.9247C49.6275 64.5563 49.6275 65.5802 48.9601 66.2117C48.2927 66.8432 47.2105 66.8432 46.5431 66.2117L40.5006 60.4943Z" fill="white"/>
<path d="M56.9286 51.6377C57.499 50.9293 58.5671 50.7901 59.3187 51.326C60.0751 51.8653 60.2245 52.8835 59.6518 53.5974L49.4184 66.354C48.771 67.161 47.5115 67.2216 46.7809 66.481C46.2067 65.8988 46.1597 65.0096 46.6699 64.3762L56.9286 51.6377Z" fill="white"/>
</svg>
