<svg width="100" height="100" viewBox="0 0 100 100" fill="none" xmlns="http://www.w3.org/2000/svg">
<mask id="mask0_4_160" style="mask-type:alpha" maskUnits="userSpaceOnUse" x="2" y="9" width="95" height="81">
<path fill-rule="evenodd" clip-rule="evenodd" d="M9.18449 16.1845C-0.394834 25.7638 -0.394829 41.295 9.18449 50.8743L49.768 90L79.2389 61.7628L89.7602 51.3258C99.386 41.7772 99.4173 26.2235 89.83 16.6362C80.2699 7.07618 64.77 7.07618 55.2099 16.6362L49.768 22.0782L43.8743 16.1845C34.295 6.60517 18.7639 6.60517 9.18449 16.1845Z" fill="white"/>
</mask>
<g mask="url(#mask0_4_160)">
<path fill-rule="evenodd" clip-rule="evenodd" d="M9.18449 16.1845C-0.394834 25.7638 -0.394829 41.295 9.18449 50.8743L49.656 91.3457L79.2389 61.7628L89.7602 51.3258C99.386 41.7772 99.4173 26.2235 89.83 16.6362C80.2699 7.07618 64.77 7.07618 55.2099 16.6362L49.768 22.0782L43.8743 16.1845C34.295 6.60517 18.7639 6.60517 9.18449 16.1845Z" fill="#87B289"/>
<path d="M9.18451 48.8743L15.5485 42.5103L9.18451 48.8743ZM9.18451 14.1845L15.5485 20.5485L9.18451 14.1845ZM49.656 89.3457L43.292 95.7097L49.656 102.074L56.0199 95.7097L49.656 89.3457ZM79.2389 59.7628L72.9006 53.3733L72.8878 53.386L72.875 53.3988L79.2389 59.7628ZM89.7602 49.3258L96.0985 55.7153L89.7602 49.3258ZM89.83 14.6362L96.194 8.2723L89.83 14.6362ZM55.2099 14.6362L61.5739 21.0002L55.2099 14.6362ZM49.768 20.0782L43.4041 26.4421L49.768 32.8061L56.132 26.4421L49.768 20.0782ZM43.8743 14.1845L50.2383 7.82054L43.8743 14.1845ZM15.5485 42.5103C9.48386 36.4457 9.48386 26.6131 15.5485 20.5485L2.82055 7.82053C-10.2735 20.9146 -10.2735 42.1442 2.82055 55.2383L15.5485 42.5103ZM56.0199 82.9818L15.5485 42.5103L2.82055 55.2383L43.292 95.7097L56.0199 82.9818ZM72.875 53.3988L43.292 82.9818L56.0199 95.7097L85.6029 66.1267L72.875 53.3988ZM85.5773 66.1523L96.0985 55.7153L83.4219 42.9363L72.9006 53.3733L85.5773 66.1523ZM96.0985 55.7153C109.263 42.6562 109.306 21.3843 96.194 8.2723L83.466 21.0002C89.5286 27.0627 89.5088 36.8982 83.4219 42.9363L96.0985 55.7153ZM96.194 8.2723C83.1192 -4.8025 61.9208 -4.8025 48.846 8.2723L61.5739 21.0002C67.6192 14.9549 77.4207 14.9549 83.466 21.0002L96.194 8.2723ZM48.846 8.2723L43.4041 13.7142L56.132 26.4421L61.5739 21.0002L48.846 8.2723ZM37.5104 20.5485L43.4041 26.4421L56.132 13.7142L50.2383 7.82054L37.5104 20.5485ZM15.5485 20.5485C21.6131 14.4838 31.4458 14.4839 37.5104 20.5485L50.2383 7.82054C37.1443 -5.27351 15.9146 -5.27351 2.82055 7.82053L15.5485 20.5485Z" fill="#87B289"/>
</g>
</svg>
