<svg width="100" height="100" viewBox="0 0 100 100" fill="none" xmlns="http://www.w3.org/2000/svg">
<mask id="mask0_4_160" style="mask-type:alpha" maskUnits="userSpaceOnUse" x="2" y="9" width="95" height="83">
<path fill-rule="evenodd" clip-rule="evenodd" d="M9.18449 16.1845C-0.394834 25.7638 -0.394829 41.295 9.18449 50.8743L49.656 91.3457L79.2389 61.7628L89.7602 51.3258C99.386 41.7772 99.4173 26.2235 89.83 16.6362C80.2699 7.07618 64.77 7.07618 55.2099 16.6362L49.768 22.0782L43.8743 16.1845C34.295 6.60517 18.7639 6.60517 9.18449 16.1845Z" fill="white"/>
</mask>
<g mask="url(#mask0_4_160)">
<path fill-rule="evenodd" clip-rule="evenodd" d="M9.18449 16.1845C-0.394834 25.7638 -0.394829 41.295 9.18449 50.8743L49.656 91.3457L79.2389 61.7628L89.7602 51.3258C99.386 41.7772 99.4173 26.2235 89.83 16.6362C80.2699 7.07618 64.77 7.07618 55.2099 16.6362L49.768 22.0782L43.8743 16.1845C34.295 6.60517 18.7639 6.60517 9.18449 16.1845Z" fill="#87B289"/>
<path d="M9.18451 50.8743L15.5485 44.5103L9.18451 50.8743ZM9.18451 16.1845L15.5485 22.5485L9.18451 16.1845ZM49.656 91.3457L43.292 97.7097L49.656 104.074L56.0199 97.7097L49.656 91.3457ZM79.2389 61.7628L72.9006 55.3733L72.8878 55.386L72.875 55.3988L79.2389 61.7628ZM89.7602 51.3258L96.0985 57.7153L89.7602 51.3258ZM89.83 16.6362L96.194 10.2723L89.83 16.6362ZM55.2099 16.6362L61.5739 23.0002L55.2099 16.6362ZM49.768 22.0782L43.4041 28.4421L49.768 34.8061L56.132 28.4421L49.768 22.0782ZM43.8743 16.1845L50.2383 9.82054L43.8743 16.1845ZM15.5485 44.5103C9.48386 38.4457 9.48386 28.6131 15.5485 22.5485L2.82055 9.82053C-10.2735 22.9146 -10.2735 44.1442 2.82055 57.2383L15.5485 44.5103ZM56.0199 84.9818L15.5485 44.5103L2.82055 57.2383L43.292 97.7097L56.0199 84.9818ZM72.875 55.3988L43.292 84.9818L56.0199 97.7097L85.6029 68.1267L72.875 55.3988ZM85.5773 68.1523L96.0985 57.7153L83.4219 44.9363L72.9006 55.3733L85.5773 68.1523ZM96.0985 57.7153C109.263 44.6562 109.306 23.3843 96.194 10.2723L83.466 23.0002C89.5286 29.0627 89.5088 38.8982 83.4219 44.9363L96.0985 57.7153ZM96.194 10.2723C83.1192 -2.8025 61.9208 -2.8025 48.846 10.2723L61.5739 23.0002C67.6192 16.9549 77.4207 16.9549 83.466 23.0002L96.194 10.2723ZM48.846 10.2723L43.4041 15.7142L56.132 28.4421L61.5739 23.0002L48.846 10.2723ZM37.5104 22.5485L43.4041 28.4421L56.132 15.7142L50.2383 9.82054L37.5104 22.5485ZM15.5485 22.5485C21.6131 16.4838 31.4458 16.4839 37.5104 22.5485L50.2383 9.82054C37.1443 -3.27351 15.9146 -3.27351 2.82055 9.82053L15.5485 22.5485Z" fill="#87B289"/>
</g>
</svg>
