<svg width="1418" height="1338" viewBox="0 0 1418 1338" fill="none" xmlns="http://www.w3.org/2000/svg">
<g clip-path="url(#clip0_16_2)">
<path d="M553.637 943.575L539.465 263.318H696.857L688.355 943.454C688.256 951.391 681.794 957.773 673.857 957.773H568.134C560.243 957.773 553.801 951.463 553.637 943.575Z" fill="#81B983" stroke="#8FC491"/>
<path d="M522.213 31.5H709.477C733.341 31.5 750.786 54.0241 744.817 77.1295L696.976 262.318H539.333L487.095 77.95C480.493 54.6508 497.996 31.5 522.213 31.5Z" fill="#ACE9AB" stroke="#8FC491"/>
<rect x="543.785" y="331" width="150" height="27.2727" fill="#8FC391"/>
<path d="M255.091 501.523C255.091 500.418 255.986 499.523 257.091 499.523H504.227C505.332 499.523 506.227 500.418 506.227 501.523V885.841C506.227 917.874 480.26 943.841 448.227 943.841H313.091C281.058 943.841 255.091 917.873 255.091 885.841V501.523Z" fill="#87B389"/>
<path d="M274.41 415.523C274.41 414.97 274.858 414.523 275.41 414.523H478.183C478.735 414.523 479.183 414.97 479.183 415.523V499.523H274.41V415.523Z" fill="#8ABB8C"/>
<path d="M301.453 189.723C301.453 173.273 318.848 162.642 333.487 170.145L444.033 226.799C451.378 230.564 455.999 238.124 455.999 246.378V414.523H301.453V189.723Z" fill="#A3DAA5"/>
<path d="M719.227 388.887H1143.23V789.727C1143.23 797.183 1137.18 803.227 1129.73 803.227H732.727C725.271 803.227 719.227 797.183 719.227 789.727V388.887Z" fill="#AEEFB1" stroke="#A3DAA5"/>
<path d="M739.727 263.318H1122.73C1134.05 263.318 1143.23 272.496 1143.23 283.818V387.886H719.227V283.818C719.227 272.496 728.405 263.318 739.727 263.318Z" fill="#AEEFB1" stroke="#A3DAA5"/>
<rect x="738" y="263" width="19" height="125" fill="#A3DAA5"/>
<rect x="784" y="264" width="19" height="125" fill="#A3DAA5"/>
<rect x="830" y="263" width="19" height="125" fill="#A3DAA5"/>
<rect x="876" y="263" width="19" height="125" fill="#A3DAA5"/>
<rect x="922" y="263" width="19" height="125" fill="#A3DAA5"/>
<rect x="968" y="263" width="19" height="125" fill="#A3DAA5"/>
<rect x="1014" y="264" width="19" height="125" fill="#A3DAA5"/>
<rect x="1060" y="263" width="19" height="125" fill="#A3DAA5"/>
<rect x="1106" y="263" width="19" height="125" fill="#A3DAA5"/>
<path d="M92.0908 538.545H1331.73C1364.31 538.545 1390.73 564.961 1390.73 597.545V1278.09C1390.73 1310.68 1364.31 1337.09 1331.73 1337.09H92.0908C59.506 1337.09 33.0908 1310.68 33.0908 1278.09V597.545C33.0908 564.961 59.506 538.545 92.0908 538.545Z" fill="#A3DAA5" stroke="#A3DAA5" stroke-width="6"/>
<path d="M36.0908 538.545H1387.73C1389.38 538.545 1390.73 539.889 1390.73 541.545V764.364H33.0908V541.545C33.0908 539.889 34.434 538.545 36.0908 538.545Z" fill="white" stroke="#A3DAA5" stroke-width="6"/>
<rect x="36" y="740" width="1352" height="27" fill="white"/>
<path d="M98.2727 767.364L643.727 1340.09L589.182 1340.09L43.7273 767.364L98.2727 767.364Z" fill="#88C08A"/>
<path d="M371 767.364L916.455 1340.09L861.909 1340.09L316.455 767.364L371 767.364Z" fill="#88C08A"/>
<path d="M725.545 767.364L1271 1340.09L1216.45 1340.09L671 767.364L725.545 767.364Z" fill="#88C08A"/>
<path d="M1325.55 767.364L780.091 1340.09L834.637 1340.09L1380.09 767.364L1325.55 767.364Z" fill="#88C08A"/>
<path d="M1011.91 767.364L466.454 1340.09L521 1340.09L1066.45 767.364L1011.91 767.364Z" fill="#88C08A"/>
<path d="M684.636 767.364L139.182 1340.09L193.727 1340.09L739.182 767.364L684.636 767.364Z" fill="#88C08A"/>
<path d="M425.545 767.364L43.7272 1176.45L43.7272 1231L480.091 767.364H425.545Z" fill="#88C08A"/>
<path d="M1039.18 767.364L1380.09 1135.55L1380.09 1190.09L984.636 767.364H1039.18Z" fill="#88C08A"/>
<path d="M43.7273 999.182L343.727 1340.09L289.182 1340.09L43.7273 1067.36L43.7273 999.182Z" fill="#88C08A"/>
<path d="M1373.27 999.182L1073.27 1340.09L1127.82 1340.09L1373.27 1067.36L1373.27 999.182Z" fill="#88C08A"/>
</g>
<defs>
<clipPath id="clip0_16_2">
<rect width="1418" height="1338" fill="white"/>
</clipPath>
</defs>
</svg>
