<svg width="1200" height="360" viewBox="0 0 1200 360" fill="none" xmlns="http://www.w3.org/2000/svg">
<rect width="1200" height="360" fill="white"/>
<path d="M370.04 219C368.92 219 367.92 218.64 367.04 217.92C366.24 217.2 365.68 216.28 365.36 215.16L340.76 132C340.2 130.08 340.28 128.48 341 127.2C341.8 125.92 343.04 125.28 344.72 125.28C345.68 125.28 346.56 125.56 347.36 126.12C348.24 126.6 348.88 127.52 349.28 128.88L371.48 206.16H368.72L389.72 130.92C389.96 130.04 390.48 129.32 391.28 128.76C392.16 128.2 393.12 127.92 394.16 127.92C395.12 127.92 396.04 128.2 396.92 128.76C397.8 129.24 398.36 130 398.6 131.04L419.72 206.16H416.96L439.28 128.4C439.84 126.32 441.36 125.28 443.84 125.28C445.52 125.28 446.68 125.96 447.32 127.32C447.96 128.6 448.04 130.16 447.56 132L423.08 215.04C422.68 216.32 422.04 217.32 421.16 218.04C420.36 218.68 419.4 219 418.28 219C417.16 219 416.16 218.64 415.28 217.92C414.48 217.2 413.92 216.28 413.6 215.16L392.72 138.96H395.6L374.84 215.04C374.44 216.24 373.8 217.2 372.92 217.92C372.12 218.64 371.16 219 370.04 219ZM466.097 192.24C464.657 192.24 463.497 191.8 462.617 190.92C461.817 190.04 461.417 188.92 461.417 187.56V129.96C461.417 128.52 461.817 127.4 462.617 126.6C463.497 125.72 464.657 125.28 466.097 125.28C467.457 125.28 468.537 125.72 469.337 126.6C470.217 127.4 470.657 128.52 470.657 129.96V187.56C470.657 188.92 470.217 190.04 469.337 190.92C468.537 191.8 467.457 192.24 466.097 192.24ZM517.697 219C516.337 219 515.217 218.56 514.337 217.68C513.457 216.8 513.017 215.72 513.017 214.44V183.24C513.017 178.28 512.057 174.2 510.137 171C508.297 167.8 505.737 165.4 502.457 163.8C499.257 162.2 495.617 161.4 491.537 161.4C487.617 161.4 484.057 162.16 480.857 163.68C477.737 165.2 475.257 167.28 473.417 169.92C471.577 172.56 470.657 175.56 470.657 178.92H464.057C464.217 173.88 465.577 169.4 468.137 165.48C470.697 161.48 474.097 158.36 478.337 156.12C482.577 153.8 487.297 152.64 492.497 152.64C498.177 152.64 503.257 153.84 507.737 156.24C512.217 158.56 515.737 162 518.297 166.56C520.937 171.12 522.257 176.68 522.257 183.24V214.44C522.257 215.72 521.817 216.8 520.937 217.68C520.057 218.56 518.977 219 517.697 219ZM466.097 219C464.657 219 463.497 218.6 462.617 217.8C461.817 216.92 461.417 215.8 461.417 214.44V158.04C461.417 156.6 461.817 155.48 462.617 154.68C463.497 153.8 464.657 153.36 466.097 153.36C467.457 153.36 468.537 153.8 469.337 154.68C470.217 155.48 470.657 156.6 470.657 158.04V214.44C470.657 215.8 470.217 216.92 469.337 217.8C468.537 218.6 467.457 219 466.097 219ZM553.908 247.56C553.268 247.56 552.548 247.4 551.748 247.08C549.028 245.88 548.268 243.96 549.468 241.32L588.228 155.88C589.428 153.32 591.348 152.6 593.988 153.72C596.708 154.84 597.468 156.72 596.268 159.36L557.388 244.8C556.588 246.64 555.428 247.56 553.908 247.56ZM567.228 216.96C566.028 217.52 564.908 217.64 563.868 217.32C562.828 216.92 561.988 216.12 561.348 214.92L534.588 159.48C534.028 158.28 533.948 157.16 534.348 156.12C534.748 155.08 535.548 154.28 536.748 153.72C537.948 153.16 539.068 153.08 540.108 153.48C541.148 153.8 541.948 154.56 542.508 155.76L568.788 211.2C569.428 212.4 569.628 213.52 569.388 214.56C569.148 215.6 568.428 216.4 567.228 216.96ZM638.37 220.2C633.25 220.2 628.49 219.48 624.09 218.04C619.77 216.52 616.01 214.4 612.81 211.68C609.61 208.96 607.17 205.8 605.49 202.2C604.85 200.92 604.81 199.76 605.37 198.72C606.01 197.6 607.05 196.84 608.49 196.44C609.61 196.12 610.69 196.24 611.73 196.8C612.85 197.36 613.69 198.2 614.25 199.32C615.45 201.64 617.21 203.72 619.53 205.56C621.85 207.4 624.61 208.84 627.81 209.88C631.01 210.84 634.53 211.32 638.37 211.32C642.61 211.32 646.37 210.64 649.65 209.28C652.93 207.84 655.49 205.8 657.33 203.16C659.25 200.44 660.21 197.16 660.21 193.32C660.21 188.44 658.41 184.24 654.81 180.72C651.21 177.2 645.57 174.96 637.89 174C628.53 172.88 621.21 170 615.93 165.36C610.65 160.64 608.01 154.88 608.01 148.08C608.01 143.2 609.29 138.96 611.85 135.36C614.49 131.76 618.09 129 622.65 127.08C627.21 125.08 632.45 124.08 638.37 124.08C642.77 124.08 646.77 124.8 650.37 126.24C653.97 127.6 657.09 129.44 659.73 131.76C662.45 134 664.65 136.48 666.33 139.2C667.13 140.48 667.37 141.72 667.05 142.92C666.81 144.12 666.13 145.04 665.01 145.68C663.81 146.24 662.57 146.32 661.29 145.92C660.09 145.52 659.17 144.76 658.53 143.64C657.33 141.8 655.81 140.08 653.97 138.48C652.21 136.8 650.05 135.48 647.49 134.52C644.93 133.56 641.85 133.04 638.25 132.96C631.93 132.96 626.85 134.32 623.01 137.04C619.17 139.68 617.25 143.56 617.25 148.68C617.25 151.4 617.97 153.92 619.41 156.24C620.85 158.48 623.21 160.44 626.49 162.12C629.85 163.72 634.33 164.92 639.93 165.72C649.93 167.16 657.33 170.24 662.13 174.96C667.01 179.6 669.45 185.68 669.45 193.2C669.45 197.52 668.65 201.36 667.05 204.72C665.53 208.08 663.33 210.92 660.45 213.24C657.65 215.48 654.33 217.2 650.49 218.4C646.73 219.6 642.69 220.2 638.37 220.2ZM695.383 197.04L689.743 190.92L730.783 153.84C731.743 152.96 732.743 152.56 733.783 152.64C734.823 152.64 735.783 153.12 736.663 154.08C737.543 155.04 737.943 156.08 737.863 157.2C737.863 158.24 737.383 159.16 736.423 159.96L695.383 197.04ZM692.383 219C691.023 219 689.903 218.6 689.023 217.8C688.223 216.92 687.823 215.8 687.823 214.44V129.84C687.823 128.48 688.223 127.4 689.023 126.6C689.903 125.72 691.023 125.28 692.383 125.28C693.743 125.28 694.823 125.72 695.623 126.6C696.503 127.4 696.943 128.48 696.943 129.84V214.44C696.943 215.8 696.503 216.92 695.623 217.8C694.823 218.6 693.743 219 692.383 219ZM736.783 218.4C735.743 219.28 734.663 219.64 733.543 219.48C732.423 219.4 731.463 218.84 730.663 217.8L703.903 184.92L710.383 179.16L737.383 212.4C738.183 213.36 738.543 214.4 738.463 215.52C738.383 216.56 737.823 217.52 736.783 218.4ZM763.095 219C761.655 219 760.495 218.6 759.615 217.8C758.815 216.92 758.415 215.76 758.415 214.32V158.04C758.415 156.6 758.815 155.48 759.615 154.68C760.495 153.8 761.655 153.36 763.095 153.36C764.455 153.36 765.535 153.8 766.335 154.68C767.215 155.48 767.655 156.6 767.655 158.04V214.32C767.655 215.76 767.215 216.92 766.335 217.8C765.535 218.6 764.455 219 763.095 219ZM762.975 140.88C761.215 140.88 759.695 140.24 758.415 138.96C757.135 137.68 756.495 136.12 756.495 134.28C756.495 132.28 757.135 130.72 758.415 129.6C759.775 128.4 761.335 127.8 763.095 127.8C764.775 127.8 766.255 128.4 767.535 129.6C768.895 130.72 769.575 132.28 769.575 134.28C769.575 136.12 768.935 137.68 767.655 138.96C766.375 140.24 764.815 140.88 762.975 140.88ZM847.463 219C846.103 219 844.983 218.56 844.103 217.68C843.223 216.8 842.783 215.72 842.783 214.44V183.24C842.783 178.28 841.823 174.2 839.903 171C838.063 167.8 835.503 165.4 832.223 163.8C829.023 162.2 825.383 161.4 821.303 161.4C817.383 161.4 813.823 162.16 810.623 163.68C807.503 165.2 805.023 167.28 803.183 169.92C801.343 172.56 800.423 175.56 800.423 178.92H793.823C793.983 173.88 795.343 169.4 797.903 165.48C800.463 161.48 803.863 158.36 808.103 156.12C812.343 153.8 817.063 152.64 822.263 152.64C827.943 152.64 833.023 153.84 837.503 156.24C841.983 158.56 845.503 162 848.063 166.56C850.703 171.12 852.023 176.68 852.023 183.24V214.44C852.023 215.72 851.583 216.8 850.703 217.68C849.823 218.56 848.743 219 847.463 219ZM795.863 219C794.423 219 793.263 218.6 792.383 217.8C791.583 216.92 791.183 215.8 791.183 214.44V158.04C791.183 156.6 791.583 155.48 792.383 154.68C793.263 153.8 794.423 153.36 795.863 153.36C797.223 153.36 798.303 153.8 799.103 154.68C799.983 155.48 800.423 156.6 800.423 158.04V214.44C800.423 215.8 799.983 216.92 799.103 217.8C798.303 218.6 797.223 219 795.863 219Z" fill="black"/>
</svg>
