<svg width="77" height="75" viewBox="0 0 77 75" fill="none" xmlns="http://www.w3.org/2000/svg">
<path fill-rule="evenodd" clip-rule="evenodd" d="M60.924 22.2049C61.1539 22.1326 61.4564 22.2772 61.759 22.6748C61.759 22.6748 61.759 22.6748 75.4334 36.0001C76.2321 36.7953 76.2321 38.0001 75.4334 38.5905C75.4334 38.5905 75.4334 38.5905 61.759 52.1206C61.4564 52.5182 61.1539 52.6146 60.924 52.4941C60.694 52.3736 60.5488 52.0242 60.5488 51.5182V23.0724C60.5488 22.5784 60.694 22.2772 60.924 22.2049Z" fill="#ED1C24"/>
<path fill-rule="evenodd" clip-rule="evenodd" d="M37.5322 0H38.5003L39.4321 0.385544C39.4321 0.385544 39.4321 0.385543 53.5059 14.3133C54.111 15.1084 53.9052 15.7108 52.9008 15.7108C52.9008 15.7108 52.9008 15.7108 47.068 15.7108C46.0636 15.7108 45.2649 16.506 45.2649 17.506C45.2649 17.506 45.2649 17.506 45.2649 27.8434C45.2649 28.8434 44.4541 29.6386 43.244 29.6386C43.244 29.6386 43.244 29.6386 32.9942 29.6386C31.9898 29.6386 31.179 28.8434 31.179 27.8434C31.179 27.8434 31.179 27.8434 31.179 17.506C31.179 16.506 30.3803 15.7108 29.3638 15.7108H23.1316C22.1272 15.7108 21.9215 15.1084 22.5265 14.3133C22.5265 14.3133 22.5265 14.3133 36.6125 0.385544L37.5322 0V0Z" fill="#ED1C24"/>
<path fill-rule="evenodd" clip-rule="evenodd" d="M15.4836 21.9035C15.7377 22.024 15.8951 22.3734 15.8951 22.8794V51.9156C15.8951 52.4216 15.7377 52.7228 15.4836 52.8192C15.2416 52.9156 14.8907 52.8192 14.4792 52.518C14.4792 52.518 14.4792 52.518 0.599015 38.5903C-0.199672 37.9999 -0.199672 36.7951 0.599015 35.9999C0.599015 35.9999 0.599016 35.9999 14.4792 22.277C14.8907 21.8794 15.2416 21.783 15.4836 21.9035Z" fill="#ED1C24"/>
<path fill-rule="evenodd" clip-rule="evenodd" d="M32.9942 44.7593C32.9942 44.7593 32.9942 44.7593 43.244 44.7593C44.4541 44.7593 45.2649 45.5545 45.2649 46.5545C45.2649 46.5545 45.2649 46.5545 45.2649 57.4942C45.2649 58.687 46.0636 59.4822 47.068 59.4822H52.5015C53.5059 59.4822 53.9053 60.0725 53.1066 60.6749C53.1066 60.6749 53.1066 60.6749 39.4321 74.3978C39.0207 74.7954 38.5245 75.0002 38.0162 75.0002C37.5201 75.0002 37.0118 74.7954 36.6125 74.3978C36.6125 74.3978 36.6125 74.3978 22.938 60.6749C22.1272 60.0725 22.5266 59.4822 23.531 59.4822C23.531 59.4822 23.531 59.4822 29.3638 59.4822C30.3803 59.4822 31.179 58.687 31.179 57.4942C31.179 57.4942 31.179 57.4942 31.179 46.5545C31.179 45.5545 31.9898 44.7593 32.9942 44.7593V44.7593Z" fill="#ED1C24"/>
</svg>
