<svg width="80" height="76" viewBox="0 0 80 76" fill="none" xmlns="http://www.w3.org/2000/svg">
<path d="M63.3689 19.1528H26.0715L23.6852 12.3133C23.0454 10.4705 21.8477 8.8725 20.2585 7.74118C18.6692 6.60987 16.7673 6.00132 14.8165 6H8.87896C8.38063 6 7.90271 6.19796 7.55034 6.55034C7.19796 6.90271 7 7.38063 7 7.87896C7 8.3773 7.19796 8.85522 7.55034 9.20759C7.90271 9.55997 8.38063 9.75793 8.87896 9.75793H14.8165C15.9859 9.75342 17.1277 10.1127 18.0838 10.786C19.0399 11.4593 19.763 12.4133 20.1528 13.5159L22.0317 19.1528L26.5976 32.0988L31.652 46.6608C32.2929 48.5067 33.4934 50.1068 35.0864 51.2384C36.6794 52.37 38.5855 52.9767 40.5395 52.9741H50.7107C51.2091 52.9741 51.687 52.7762 52.0394 52.4238C52.3918 52.0714 52.5897 51.5935 52.5897 51.0951C52.5897 50.5968 52.3918 50.1189 52.0394 49.7665C51.687 49.4141 51.2091 49.2162 50.7107 49.2162H40.5395C39.3669 49.2246 38.2209 48.8671 37.2611 48.1936C36.3012 47.52 35.5753 46.5638 35.1845 45.4583H55.4209C58.0172 45.4657 60.5383 44.5872 62.5676 42.9678C64.597 41.3484 66.0131 39.0852 66.582 36.552L68.8743 25.9734C69.0508 25.1519 69.0413 24.3013 68.8467 23.4839C68.6521 22.6665 68.2772 21.903 67.7494 21.2492C67.2217 20.5954 66.5544 20.0678 65.7965 19.705C65.0386 19.3423 64.2092 19.1536 63.3689 19.1528ZM65.2479 25.1654L62.9556 35.744C62.5667 37.4435 61.6103 38.9596 60.244 40.0425C58.8776 41.1253 57.183 41.7101 55.4397 41.7003H36.0847C34.8132 41.7003 33.6799 40.8988 33.2562 39.7001L30.1113 30.8023L28.7532 26.8957C28.0756 24.9463 29.5231 22.9107 31.5869 22.9107H63.3689C63.6654 22.9026 63.9595 22.9648 64.2273 23.0921C64.4951 23.2195 64.7289 23.4084 64.9097 23.6435C65.0717 23.8582 65.1857 24.1052 65.2441 24.3677C65.3024 24.6303 65.3037 24.9023 65.2479 25.1654Z" fill="#87B289" stroke="#87B289" stroke-width="2"/>
<path d="M59 56C57.6155 56 56.2622 56.4105 55.111 57.1797C53.9599 57.9489 53.0627 59.0421 52.5328 60.3212C52.003 61.6003 51.8644 63.0078 52.1345 64.3656C52.4046 65.7235 53.0713 66.9708 54.0503 67.9497C55.0292 68.9287 56.2765 69.5954 57.6344 69.8655C58.9922 70.1356 60.3997 69.997 61.6788 69.4672C62.9579 68.9373 64.0511 68.0401 64.8203 66.889C65.5895 65.7378 66 64.3845 66 63C66 61.1435 65.2625 59.363 63.9497 58.0503C62.637 56.7375 60.8565 56 59 56ZM59 65.3333C58.5385 65.3333 58.0874 65.1965 57.7037 64.9401C57.32 64.6837 57.0209 64.3193 56.8443 63.8929C56.6677 63.4666 56.6215 62.9974 56.7115 62.5448C56.8015 62.0922 57.0238 61.6764 57.3501 61.3501C57.6764 61.0238 58.0922 60.8015 58.5448 60.7115C58.9974 60.6215 59.4666 60.6677 59.8929 60.8443C60.3193 61.0209 60.6837 61.32 60.9401 61.7037C61.1965 62.0874 61.3333 62.5385 61.3333 63C61.3333 63.6188 61.0875 64.2123 60.6499 64.6499C60.2123 65.0875 59.6188 65.3333 59 65.3333Z" fill="#87B289"/>
<path d="M29 56C27.6155 56 26.2622 56.4105 25.111 57.1797C23.9599 57.9489 23.0627 59.0421 22.5328 60.3212C22.003 61.6003 21.8644 63.0078 22.1345 64.3656C22.4046 65.7235 23.0713 66.9708 24.0503 67.9497C25.0292 68.9287 26.2765 69.5954 27.6344 69.8655C28.9922 70.1356 30.3997 69.997 31.6788 69.4672C32.9579 68.9373 34.0511 68.0401 34.8203 66.889C35.5895 65.7378 36 64.3845 36 63C36 61.1435 35.2625 59.363 33.9497 58.0503C32.637 56.7375 30.8565 56 29 56ZM29 65.3333C28.5385 65.3333 28.0874 65.1965 27.7037 64.9401C27.32 64.6837 27.0209 64.3193 26.8443 63.8929C26.6677 63.4666 26.6215 62.9974 26.7115 62.5448C26.8015 62.0922 27.0238 61.6764 27.3501 61.3501C27.6764 61.0238 28.0922 60.8015 28.5448 60.7115C28.9974 60.6215 29.4666 60.6677 29.8929 60.8443C30.3193 61.0209 30.6837 61.32 30.9401 61.7037C31.1965 62.0874 31.3333 62.5385 31.3333 63C31.3333 63.6188 31.0875 64.2123 30.6499 64.6499C30.2123 65.0875 29.6188 65.3333 29 65.3333Z" fill="#87B289"/>
</svg>
