<svg width="53" height="77" viewBox="0 0 53 77" fill="none" xmlns="http://www.w3.org/2000/svg">
<path d="M50.5307 44.1456C50.5287 44.1451 25.0699 38.3838 25.0699 38.3838C17.4815 36.6666 12.7212 29.1226 14.438 21.5337C16.1557 13.9448 23.6997 9.18556 31.2881 10.9023C38.877 12.6197 43.6367 20.1636 41.9199 27.7519C41.0596 31.5513 38.7387 34.6387 35.6831 36.5621C35.6826 36.5621 35.6752 36.5683 35.6724 36.5698C35.5825 36.6343 35.5244 36.7393 35.5244 36.8574C35.5244 37.0229 35.6386 37.1621 35.793 37.1992C35.7935 37.1997 47.1186 39.7607 47.1206 39.7607C47.3901 39.8218 47.6699 39.7178 47.8355 39.4991C47.8364 39.4971 47.836 39.4986 47.836 39.4986C50.956 35.3701 52.8301 30.2187 52.8301 24.6469C52.8301 11.5254 42.5786 0.80219 29.648 0.0405655C29.5327 0.0341905 28.832 0.00681586 28.5952 0.00344086C22.8701 -0.0864341 17.0654 1.55518 12.0176 5.09031C-0.729995 14.0161 -3.82716 31.5849 5.09765 44.3321L27.7485 76.6812C27.8452 76.813 28.001 76.8984 28.1757 76.8984C28.352 76.8984 28.5082 76.8115 28.6045 76.6787C28.6045 76.6787 50.8471 44.9584 50.8491 44.9556C50.9057 44.8716 50.9395 44.7696 50.9395 44.6602C50.9395 44.4092 50.7651 44.1992 50.5307 44.1456" fill="#FABC26"/>
</svg>
