<svg width="100" height="100" viewBox="0 0 100 100" fill="none" xmlns="http://www.w3.org/2000/svg">
<path fill-rule="evenodd" clip-rule="evenodd" d="M59.5605 44.1429V50.2245C59.5605 51.8814 60.9036 53.2245 62.5605 53.2245H70C71.6569 53.2245 73 51.8814 73 50.2245V44.1429H92.2431C95.6088 44.1429 98.0132 47.4011 97.0208 50.6171L84.4134 91.4743C83.7667 93.5703 81.8293 95 79.6357 95H20.3198C18.1262 95 16.1888 93.5703 15.542 91.4743L2.93469 50.6172C1.9423 47.4011 4.3467 44.1429 7.7124 44.1429H25V50.2245C25 51.8814 26.3431 53.2245 28 53.2245H35.4405C37.0973 53.2245 38.4405 51.8814 38.4405 50.2245V44.1429H59.5605Z" fill="white"/>
<path fill-rule="evenodd" clip-rule="evenodd" d="M49 6C36.8497 6 27 15.8497 27 28V45.5918C27 47.801 28.7909 49.5918 31 49.5918H32.565C34.7742 49.5918 36.565 47.801 36.565 45.5918V25.2653C36.565 18.6379 41.9376 13.2653 48.565 13.2653H49.4346C56.062 13.2653 61.4346 18.6379 61.4346 25.2653V45.5918C61.4346 47.801 63.2255 49.5918 65.4346 49.5918H67C69.2091 49.5918 71 47.801 71 45.5918V28C71 15.8497 61.1503 6 49 6Z" fill="white"/>
</svg>
