<svg width="100" height="100" viewBox="0 0 100 100" fill="none" xmlns="http://www.w3.org/2000/svg">
<path fill-rule="evenodd" clip-rule="evenodd" d="M65.3081 68.8497L71.7587 62.2216C71.7971 62.2792 71.8382 62.3401 71.8816 62.4033C72.1636 62.8133 72.5586 63.342 72.9901 63.7736C73.55 64.3334 74.0604 64.6569 74.5348 64.8296L85.9999 77.5L97.5111 87.316C99.5927 89.0912 99.7399 92.2564 97.8318 94.217C95.9518 96.1487 92.8403 96.1221 90.9936 94.1584L80.4999 83L67.9989 71.843C67.8546 71.283 67.5115 70.6772 66.8115 70.004C66.3716 69.581 65.8353 69.1964 65.4198 68.9226C65.3816 68.8974 65.3444 68.8731 65.3081 68.8497Z" fill="white"/>
<circle cx="40.5" cy="40.5" r="33.5" stroke="white" stroke-width="10"/>
</svg>
