<svg width="71" height="71" viewBox="0 0 71 71" fill="none" xmlns="http://www.w3.org/2000/svg">
<path d="M34.4458 14.775C34.8453 14.3715 35.5002 14.3811 35.8876 14.7962L41.5185 20.8293C41.8862 21.2233 41.8756 21.8378 41.4945 22.2188L7.95579 55.755C7.56527 56.1455 6.93212 56.1455 6.54161 55.755L0.881167 50.0945C0.492036 49.7054 0.490444 49.075 0.877606 48.6839L34.4458 14.775Z" fill="black"/>
<path d="M28.8813 21.8105C28.4921 21.4213 28.4905 20.7909 28.8777 20.3998L34.4714 14.7492C34.861 14.3556 35.4964 14.3537 35.8884 14.7449L69.8956 48.6841C70.2868 49.0745 70.2871 49.7082 69.8963 50.099L64.2402 55.7552C63.8497 56.1457 63.2165 56.1457 62.826 55.7552L28.8813 21.8105Z" fill="black"/>
</svg>
